<svg width="720" height="560" viewBox="0 0 720 560" fill="none" xmlns="http://www.w3.org/2000/svg" role="img" aria-labelledby="title desc">
  <title id="title">Blue desk lamp</title>
  <desc id="desc">A modern blue desk lamp on a tidy dorm desk with notebooks.</desc>
  <defs>
    <linearGradient id="bg" x1="0" x2="720" y1="0" y2="560" gradientUnits="userSpaceOnUse">
      <stop stop-color="#EEF7FF"/>
      <stop offset="1" stop-color="#FFF8F0"/>
    </linearGradient>
    <filter id="shadow" x="96" y="74" width="500" height="420" filterUnits="userSpaceOnUse" color-interpolation-filters="sRGB">
      <feDropShadow dx="0" dy="24" stdDeviation="24" flood-color="#10213C" flood-opacity=".2"/>
    </filter>
  </defs>
  <rect width="720" height="560" rx="34" fill="url(#bg)"/>
  <rect x="78" y="388" width="564" height="62" rx="31" fill="#D19855"/>
  <rect x="104" y="426" width="44" height="80" rx="12" fill="#8F5B2C"/>
  <rect x="574" y="426" width="44" height="80" rx="12" fill="#8F5B2C"/>
  <rect x="420" y="332" width="156" height="46" rx="12" fill="#FFFFFF"/>
  <rect x="434" y="344" width="128" height="10" rx="5" fill="#24344D"/>
  <rect x="424" y="294" width="156" height="46" rx="12" fill="#E9F0FA"/>
  <rect x="438" y="306" width="122" height="10" rx="5" fill="#0877F2"/>
  <g filter="url(#shadow)">
    <circle cx="322" cy="128" r="44" fill="#0877F2"/>
    <path d="M318 166 226 296" stroke="#0B1B33" stroke-width="22" stroke-linecap="round"/>
    <path d="M226 296 302 386" stroke="#0B1B33" stroke-width="22" stroke-linecap="round"/>
    <circle cx="226" cy="296" r="26" fill="#0877F2"/>
    <circle cx="302" cy="386" r="24" fill="#0877F2"/>
    <path d="M272 386h108" stroke="#0B1B33" stroke-width="24" stroke-linecap="round"/>
    <path d="M220 112c40-62 130-62 170 0l-36 78H256l-36-78Z" fill="#0877F2"/>
    <path d="M238 126h134" stroke="#78B8FF" stroke-width="12" stroke-linecap="round"/>
    <path d="M258 190c24 28 70 28 94 0" stroke="#0B1B33" stroke-width="10" stroke-linecap="round" opacity=".32"/>
    <ellipse cx="326" cy="414" rx="96" ry="24" fill="#0B1B33"/>
  </g>
  <circle cx="530" cy="128" r="66" fill="#E7F0E4"/>
  <path d="M500 128c32-38 62-40 90-74 6 52-20 84-74 100" stroke="#4E7F52" stroke-width="13" stroke-linecap="round"/>
</svg>
